<svg width="16" height="20" viewBox="0 0 16 20" fill="none" xmlns="http://www.w3.org/2000/svg">
    <path
        d="M12.25 4.3125C13.1475 4.3125 13.875 3.58496 13.875 2.6875C13.875 1.79004 13.1475 1.0625 12.25 1.0625C11.3525 1.0625 10.625 1.79004 10.625 2.6875C10.625 3.58496 11.3525 4.3125 12.25 4.3125Z"
        fill="white" stroke="black" stroke-miterlimit="10" />
    <path d="M9.8125 14.0625H13.0625L14.6875 18.9375" stroke="black" stroke-miterlimit="10" />
    <path d="M6.5625 10.8125L11.4375 5.9375H6.5625L4.125 8.375" stroke="black"
        stroke-miterlimit="10" />
    <path
        d="M5.34375 18.9375C7.81177 18.9375 9.8125 16.9368 9.8125 14.4688C9.8125 12.0007 7.81177 10 5.34375 10C2.87573 10 0.875 12.0007 0.875 14.4688C0.875 16.9368 2.87573 18.9375 5.34375 18.9375Z"
        fill="white" stroke="black" stroke-miterlimit="10" />
</svg>