<svg width="36" height="20" viewBox="0 0 36 20" fill="none" xmlns="http://www.w3.org/2000/svg">
    <path
        d="M23.5812 15.7639C18.5096 15.4665 14.5625 13.2061 14.5625 10.4615C14.5625 7.51375 19.1109 5.125 24.7204 5.125C30.3299 5.125 34.875 7.51375 34.875 10.4615C34.875 12.5236 32.6487 14.3127 29.3874 15.2L27.8111 18.9375L23.5812 15.7639Z"
        fill="white" stroke="black" stroke-miterlimit="2" />
    <path
        d="M4.81384 9.99941L3.18884 14.0619L9.60272 11.4083C10.0983 11.4489 10.607 11.4684 11.1237 11.4684C16.6146 11.4684 21.0638 9.14628 21.0638 6.28303C21.0638 3.41978 16.613 1.09766 11.1237 1.09766C5.63447 1.09766 1.18359 3.41978 1.18359 6.28303C1.18359 7.90316 2.57947 9.05041 4.81547 10.001L4.81384 9.99941Z"
        fill="white" stroke="black" stroke-miterlimit="3" />
</svg>